<svg width="180" height="90" viewBox="0 0 180 90" fill="none" xmlns="http://www.w3.org/2000/svg">
<path d="M174.411 42.6242C174.915 42.6242 175.352 42.6746 175.722 42.7754C176.125 42.8762 176.444 43.1282 176.679 43.5314C176.914 43.901 177.032 44.5058 177.032 45.3458C177.032 46.1858 176.914 46.8074 176.679 47.2106C176.444 47.5802 176.125 47.8154 175.722 47.9162C175.318 47.9834 174.865 48.017 174.361 48.017L165.087 48.017L165.087 74.8802C165.087 75.4514 165.02 75.9722 164.886 76.4426C164.785 76.8794 164.516 77.2322 164.079 77.501C163.676 77.7698 162.987 77.9042 162.013 77.9042C161.106 77.9042 160.434 77.753 159.997 77.4506C159.56 77.1818 159.291 76.829 159.19 76.3922C159.09 75.9218 159.039 75.401 159.039 74.8298L159.039 48.017L149.665 48.017C149.194 48.017 148.758 47.9666 148.354 47.8658C147.951 47.765 147.615 47.5298 147.346 47.1602C147.111 46.7906 146.994 46.1858 146.994 45.3458C146.994 44.5058 147.111 43.901 147.346 43.5314C147.582 43.1282 147.901 42.8762 148.304 42.7754C148.741 42.6746 149.194 42.6242 149.665 42.6242L174.411 42.6242Z" fill="#323233"/>
<path d="M139.855 77.904C138.914 77.904 138.226 77.7528 137.789 77.4504C137.352 77.1816 137.083 76.812 136.982 76.3416C136.882 75.8712 136.831 75.3504 136.831 74.7792L136.831 45.6984C136.831 45.1608 136.882 44.6568 136.982 44.1864C137.117 43.716 137.386 43.3464 137.789 43.0776C138.226 42.8088 138.931 42.6744 139.906 42.6744C140.846 42.6744 141.518 42.8088 141.922 43.0776C142.358 43.3464 142.627 43.716 142.728 44.1864C142.862 44.6568 142.93 45.1776 142.93 45.7488L142.93 74.8296C142.93 75.4008 142.862 75.9216 142.728 76.392C142.627 76.8288 142.358 77.1816 141.922 77.4504C141.485 77.7528 140.796 77.904 139.855 77.904Z" fill="#323233"/>
<path d="M107.856 77.8538C106.982 77.8538 106.327 77.7026 105.89 77.4002C105.454 77.0978 105.168 76.6946 105.034 76.1906C104.933 75.6866 104.882 75.1322 104.882 74.5274L104.882 45.9002C104.882 45.2954 104.95 44.7578 105.084 44.2874C105.218 43.7834 105.487 43.3802 105.89 43.0778C106.327 42.7754 106.999 42.6242 107.906 42.6242L121.212 42.6242C123.161 42.6242 124.874 43.0778 126.353 43.985C127.865 44.8922 129.041 46.1018 129.881 47.6138C130.721 49.0922 131.141 50.7218 131.141 52.5026C131.141 53.309 131.04 54.1154 130.838 54.9218C130.67 55.6946 130.385 56.417 129.982 57.089C129.612 57.761 129.141 58.3658 128.57 58.9034C129.343 59.5082 130.015 60.2474 130.586 61.121C131.158 61.9946 131.577 62.9522 131.846 63.9938C132.149 65.0018 132.3 66.0602 132.3 67.169C132.266 68.681 131.981 70.0922 131.443 71.4026C130.905 72.6794 130.15 73.805 129.175 74.7794C128.234 75.7538 127.126 76.5098 125.849 77.0474C124.572 77.585 123.194 77.8538 121.716 77.8538L107.856 77.8538ZM110.981 71.9066L121.212 71.9066C122.186 71.9066 123.043 71.7218 123.782 71.3522C124.555 70.9826 125.16 70.4114 125.597 69.6386C126.033 68.8658 126.252 67.8578 126.252 66.6146C126.252 65.6402 126.118 64.8674 125.849 64.2962C125.614 63.6914 125.278 63.221 124.841 62.885C124.438 62.549 123.967 62.3138 123.43 62.1794C122.926 62.045 122.421 61.9778 121.917 61.9778C121.413 61.9442 120.943 61.9274 120.506 61.9274L118.188 61.9274C117.314 61.9274 116.676 61.7258 116.273 61.3226C115.869 60.8858 115.668 60.1802 115.668 59.2058C115.668 58.2986 115.886 57.6602 116.323 57.2906C116.76 56.8874 117.432 56.6858 118.339 56.6858L120.607 56.6858C121.044 56.6858 121.514 56.669 122.018 56.6354C122.556 56.6018 123.06 56.4842 123.53 56.2826C124.001 56.0474 124.387 55.6778 124.69 55.1738C124.992 54.6698 125.143 53.9306 125.143 52.9562C125.143 51.4442 124.74 50.3522 123.934 49.6802C123.161 48.9746 121.817 48.6218 119.902 48.6218L110.981 48.6218L110.981 71.9066Z" fill="#323233"/>
<path d="M84.764 78.1562C82.412 78.1562 80.312 77.7362 78.464 76.8962C76.6496 76.0226 75.1208 74.8298 73.8776 73.3178C72.6344 71.7722 71.6936 70.025 71.0552 68.0762C70.4168 66.0938 70.0976 63.9938 70.0976 61.7762L70.0976 45.6986C70.0976 45.1274 70.148 44.6234 70.2488 44.1866C70.3832 43.7162 70.652 43.3466 71.0552 43.0778C71.492 42.7754 72.1976 42.6242 73.172 42.6242C74.1464 42.6242 74.8352 42.7754 75.2384 43.0778C75.6752 43.3466 75.944 43.7162 76.0448 44.1866C76.1792 44.6234 76.2464 45.1442 76.2464 45.749L76.2464 61.7762C76.2464 63.6242 76.5488 65.3378 77.1536 66.917C77.792 68.4626 78.7496 69.7058 80.0264 70.6466C81.3032 71.5874 82.9328 72.0578 84.9152 72.0578C86.696 72.0578 88.2248 71.6378 89.5016 70.7978C90.7784 69.9578 91.7528 68.765 92.4248 67.2194C93.1304 65.6738 93.4832 63.8426 93.4832 61.7258L93.4832 45.4466C93.4832 44.909 93.5336 44.4386 93.6344 44.0354C93.7688 43.6322 94.0544 43.2962 94.4912 43.0274C94.928 42.7586 95.6168 42.6242 96.5576 42.6242C97.532 42.6242 98.2208 42.7754 98.624 43.0778C99.0608 43.3466 99.3296 43.7162 99.4304 44.1866C99.5312 44.657 99.5816 45.1778 99.5816 45.749L99.5816 61.877C99.5816 64.0946 99.2624 66.1946 98.624 68.177C97.9856 70.1258 97.028 71.8562 95.7512 73.3682C94.4744 74.8466 92.912 76.0226 91.064 76.8962C89.2496 77.7362 87.1496 78.1562 84.764 78.1562Z" fill="#323233"/>
<path d="M49.1042 78.3072C46.685 78.3072 44.417 77.8536 42.3002 76.9464C40.217 76.0056 38.369 74.7288 36.7562 73.116C35.1434 71.4696 33.8834 69.588 32.9762 67.4712C32.069 65.3208 31.6154 63.0192 31.6154 60.5664C31.6154 58.0464 32.0522 55.6944 32.9258 53.5104C33.833 51.2928 35.0594 49.3608 36.605 47.7144C38.1842 46.0344 39.9986 44.724 42.0482 43.7832C44.0978 42.8424 46.2986 42.372 48.6506 42.372C51.1034 42.372 53.3714 42.8424 55.4546 43.7832C57.5714 44.6904 59.4194 45.9672 60.9986 47.6136C62.5778 49.26 63.821 51.1752 64.7282 53.3592C65.6354 55.5096 66.089 57.8448 66.089 60.3648C66.089 62.8176 65.6522 65.136 64.7786 67.32C63.905 69.4704 62.6786 71.3856 61.0994 73.0656C59.5202 74.712 57.7058 76.0056 55.6562 76.9464C53.6402 77.8536 51.4562 78.3072 49.1042 78.3072ZM48.8522 72.1584C50.3978 72.1584 51.8426 71.856 53.1866 71.2512C54.5306 70.6464 55.7066 69.8064 56.7146 68.7312C57.7562 67.656 58.5626 66.4128 59.1338 65.0016C59.705 63.5568 59.9906 62.0112 59.9906 60.3648C59.9906 58.7184 59.6882 57.1896 59.0834 55.7784C58.5122 54.3336 57.7058 53.0736 56.6642 51.9984C55.6562 50.8896 54.4802 50.0328 53.1362 49.428C51.8258 48.8232 50.3978 48.5208 48.8522 48.5208C47.3402 48.5208 45.9122 48.8232 44.5682 49.428C43.2242 50.0328 42.0314 50.8896 40.9898 51.9984C39.9818 53.0736 39.1922 54.3336 38.621 55.7784C38.0498 57.2232 37.7642 58.752 37.7642 60.3648C37.7642 61.9776 38.0498 63.5064 38.621 64.9512C39.2258 66.396 40.0322 67.656 41.0402 68.7312C42.0482 69.8064 43.2074 70.6464 44.5178 71.2512C45.8618 71.856 47.3066 72.1584 48.8522 72.1584Z" fill="#323233"/>
<path d="M5.99208 77.8536C5.05127 77.8536 4.36247 77.7192 3.92567 77.4504C3.52247 77.1816 3.25367 76.812 3.11927 76.3416C3.01847 75.8376 2.96807 75.3168 2.96807 74.7792L2.96807 45.6984C2.96807 45.1608 3.03527 44.6736 3.16967 44.2368C3.30407 43.7664 3.57287 43.3968 3.97607 43.128C4.41287 42.8256 5.10167 42.6744 6.04247 42.6744L16.8281 42.6744C18.3737 42.6744 19.8353 42.9264 21.2129 43.4304C22.6241 43.9008 23.8841 44.64 24.9929 45.648C26.1017 46.6224 26.9753 47.8656 27.6137 49.3776C28.2857 50.856 28.6217 52.5864 28.6217 54.5688C28.6217 55.8792 28.4201 57.1896 28.0169 58.5C27.6137 59.7768 27.0089 60.9696 26.2025 62.0784C25.4297 63.1536 24.4385 64.0776 23.2289 64.8504C22.0193 65.6232 20.5913 66.1272 18.9449 66.3624L9.06648 66.3624L9.06648 74.8296C9.06648 75.3672 8.99927 75.8712 8.86487 76.3416C8.76407 76.812 8.49527 77.1816 8.05847 77.4504C7.65527 77.7192 6.96648 77.8536 5.99208 77.8536ZM27.4625 77.0976C26.4881 77.7696 25.6817 78.0216 25.0433 77.8536C24.4385 77.6856 23.8337 77.148 23.2289 76.2408L14.7617 63.4392L21.5657 62.532L28.2689 72.7128C28.7393 73.3848 29.0249 73.956 29.1257 74.4264C29.2265 74.8968 29.1425 75.3336 28.8737 75.7368C28.6049 76.14 28.1345 76.5936 27.4625 77.0976ZM9.06648 60.3144L17.5841 60.3144C18.1889 60.3144 18.7769 60.2136 19.3481 60.012C19.9529 59.7768 20.4905 59.424 20.9609 58.9536C21.4313 58.4496 21.8009 57.8448 22.0697 57.1392C22.3721 56.4 22.5233 55.5264 22.5233 54.5184C22.5233 53.3088 22.2881 52.284 21.8177 51.444C21.3473 50.5704 20.6753 49.9152 19.8017 49.4784C18.9617 49.008 17.9369 48.7728 16.7273 48.7728L9.06648 48.7728L9.06648 60.3144Z" fill="#323233"/>
<path d="M159.888 20.8983C159.241 20.8983 158.686 20.8323 158.224 20.7003C157.762 20.5683 157.386 20.3637 157.096 20.0865C156.805 19.8093 156.588 19.4529 156.442 19.0173C156.31 18.5685 156.244 18.0405 156.244 17.4333L156.244 9.0381C156.244 8.8005 156.264 8.5959 156.304 8.4243C156.357 8.2527 156.462 8.1207 156.621 8.0283C156.792 7.9227 157.056 7.8699 157.413 7.8699C157.782 7.8699 158.046 7.9227 158.205 8.0283C158.376 8.1339 158.482 8.2791 158.521 8.4639C158.574 8.6355 158.601 8.8269 158.601 9.0381L158.601 17.3541C158.601 17.6313 158.62 17.8557 158.66 18.0273C158.713 18.1989 158.785 18.3309 158.878 18.4233C158.983 18.5025 159.115 18.5619 159.274 18.6015C159.445 18.6279 159.65 18.6411 159.888 18.6411C160.138 18.6411 160.35 18.6609 160.521 18.7005C160.706 18.7401 160.845 18.8391 160.937 18.9975C161.029 19.1427 161.076 19.3869 161.076 19.7301C161.076 20.0997 161.016 20.3703 160.897 20.5419C160.792 20.7003 160.647 20.7993 160.462 20.8389C160.29 20.8785 160.099 20.8983 159.888 20.8983ZM155.433 11.3349L157.472 11.3547L160.204 11.2755C160.429 11.2755 160.627 11.3019 160.798 11.3547C160.983 11.3943 161.128 11.4999 161.234 11.6715C161.34 11.8299 161.392 12.0939 161.392 12.4635C161.392 12.8067 161.34 13.0641 161.234 13.2357C161.128 13.4073 160.99 13.5195 160.818 13.5723C160.647 13.6119 160.449 13.6317 160.224 13.6317L157.571 13.5921L155.373 13.6119C155.043 13.5987 154.812 13.5063 154.68 13.3347C154.561 13.1499 154.502 12.8529 154.502 12.4437C154.502 12.0609 154.575 11.7837 154.72 11.6121C154.878 11.4273 155.116 11.3349 155.433 11.3349Z" fill="#55AB7B"/>
<path d="M151.973 20.898C151.617 20.898 151.353 20.8386 151.181 20.7198C151.01 20.6142 150.904 20.4756 150.865 20.304C150.825 20.1192 150.805 19.9146 150.805 19.6902L150.805 12.3246C150.805 12.1134 150.825 11.922 150.865 11.7504C150.917 11.5656 151.023 11.4204 151.181 11.3148C151.353 11.2092 151.624 11.1564 151.993 11.1564C152.363 11.1564 152.627 11.2092 152.785 11.3148C152.957 11.4204 153.062 11.5656 153.102 11.7504C153.142 11.9352 153.161 12.1398 153.161 12.3642L153.161 19.71C153.161 19.9344 153.142 20.139 153.102 20.3238C153.062 20.4954 152.957 20.634 152.785 20.7396C152.627 20.8452 152.356 20.898 151.973 20.898ZM151.973 9.23581C151.591 9.23581 151.307 9.18301 151.122 9.07741C150.95 8.95861 150.838 8.80021 150.785 8.60221C150.746 8.40421 150.726 8.18641 150.726 7.94881C150.726 7.69801 150.746 7.48021 150.785 7.29541C150.838 7.11061 150.957 6.96541 151.142 6.85981C151.327 6.74101 151.61 6.68161 151.993 6.68161C152.389 6.68161 152.673 6.74101 152.845 6.85981C153.016 6.97861 153.128 7.13701 153.181 7.33501C153.234 7.51981 153.26 7.73761 153.26 7.98841C153.26 8.21281 153.234 8.42401 153.181 8.62201C153.128 8.82001 153.016 8.97181 152.845 9.07741C152.673 9.18301 152.383 9.23581 151.973 9.23581Z" fill="#55AB7B"/>
<path d="M144.445 20.8786C143.798 20.8786 143.217 20.7532 142.702 20.5024C142.201 20.2384 141.772 19.882 141.415 19.4332C141.072 18.9844 140.808 18.4696 140.623 17.8888C140.452 17.2948 140.366 16.6612 140.366 15.988C140.379 15.3148 140.478 14.6878 140.663 14.107C140.848 13.513 141.112 12.9982 141.455 12.5626C141.811 12.1138 142.24 11.764 142.742 11.5132C143.243 11.2624 143.811 11.137 144.445 11.137C145.052 11.137 145.619 11.2624 146.147 11.5132C146.689 11.764 147.164 12.1138 147.573 12.5626C147.995 12.9982 148.325 13.513 148.563 14.107C148.801 14.6878 148.919 15.3082 148.919 15.9682C148.919 16.6546 148.801 17.3014 148.563 17.9086C148.325 18.5026 148.002 19.024 147.593 19.4728C147.184 19.9084 146.708 20.2516 146.167 20.5024C145.626 20.7532 145.052 20.8786 144.445 20.8786ZM144.128 18.562C144.59 18.562 145.006 18.4564 145.375 18.2452C145.745 18.0208 146.035 17.7172 146.246 17.3344C146.471 16.9516 146.583 16.516 146.583 16.0276C146.583 15.526 146.471 15.0838 146.246 14.701C146.035 14.305 145.745 14.0014 145.375 13.7902C145.006 13.5658 144.59 13.4536 144.128 13.4536C143.679 13.4536 143.27 13.5658 142.9 13.7902C142.531 14.0146 142.234 14.3182 142.009 14.701C141.798 15.0838 141.692 15.526 141.692 16.0276C141.692 16.516 141.798 16.9516 142.009 17.3344C142.234 17.7172 142.531 18.0208 142.9 18.2452C143.27 18.4564 143.679 18.562 144.128 18.562ZM140.465 20.8984C140.108 20.8984 139.844 20.839 139.673 20.7202C139.501 20.6146 139.396 20.476 139.356 20.3044C139.316 20.1196 139.297 19.915 139.297 19.6906L139.297 7.88981C139.297 7.66541 139.316 7.46741 139.356 7.29581C139.396 7.11101 139.501 6.96581 139.673 6.86021C139.844 6.75461 140.108 6.70181 140.465 6.70181C140.834 6.70181 141.098 6.75461 141.257 6.86021C141.415 6.96581 141.514 7.11101 141.554 7.29581C141.593 7.48061 141.613 7.67861 141.613 7.88981L141.613 20.0866C141.56 20.377 141.448 20.5816 141.277 20.7004C141.118 20.8324 140.848 20.8984 140.465 20.8984Z" fill="#55AB7B"/>
<path d="M136.201 20.8584C135.818 20.8584 135.535 20.7858 135.35 20.6406C135.165 20.4954 135.073 20.2974 135.073 20.0466L135.211 19.3932C135.106 19.5648 134.927 19.7694 134.677 20.007C134.426 20.2314 134.096 20.436 133.687 20.6208C133.277 20.7924 132.782 20.8782 132.202 20.8782C131.581 20.8782 130.994 20.7528 130.439 20.502C129.898 20.238 129.416 19.8816 128.994 19.4328C128.585 18.9708 128.255 18.4494 128.004 17.8686C127.766 17.2746 127.648 16.641 127.648 15.9678C127.648 15.321 127.766 14.7138 128.004 14.1462C128.255 13.5654 128.591 13.0506 129.014 12.6018C129.436 12.153 129.918 11.8032 130.459 11.5524C131.014 11.2884 131.594 11.1564 132.202 11.1564C132.743 11.1564 133.198 11.229 133.568 11.3742C133.951 11.5194 134.274 11.7042 134.538 11.9286C134.802 12.1398 135.02 12.3642 135.191 12.6018L135.073 12.0276C135.073 11.7372 135.165 11.5194 135.35 11.3742C135.535 11.2158 135.825 11.1366 136.221 11.1366C136.591 11.1366 136.855 11.196 137.013 11.3148C137.171 11.4204 137.27 11.5722 137.31 11.7702C137.35 11.955 137.369 12.1662 137.369 12.4038L137.369 19.6506C137.369 19.875 137.35 20.0796 137.31 20.2644C137.27 20.4492 137.165 20.5944 136.993 20.7C136.835 20.8056 136.571 20.8584 136.201 20.8584ZM132.558 18.5616C133.007 18.5616 133.409 18.4494 133.766 18.225C134.122 18.0006 134.406 17.697 134.617 17.3142C134.842 16.9182 134.954 16.4826 134.954 16.0074C134.954 15.4926 134.842 15.0438 134.617 14.661C134.393 14.2782 134.096 13.9812 133.726 13.77C133.37 13.5456 132.967 13.4334 132.518 13.4334C132.03 13.4334 131.594 13.5522 131.212 13.7898C130.829 14.0142 130.525 14.3244 130.301 14.7204C130.09 15.1032 129.984 15.5388 129.984 16.0272C129.984 16.5024 130.096 16.9314 130.321 17.3142C130.545 17.697 130.849 18.0006 131.231 18.225C131.627 18.4494 132.07 18.5616 132.558 18.5616Z" fill="#55AB7B"/>
<path d="M124.701 20.8782C124.332 20.8782 124.061 20.8254 123.889 20.7198C123.718 20.6142 123.612 20.469 123.573 20.2842C123.533 20.0862 123.513 19.8816 123.513 19.6704L123.513 8.2458C123.513 8.0346 123.533 7.8366 123.573 7.6518C123.625 7.467 123.731 7.3218 123.889 7.2162C124.061 7.1106 124.338 7.0578 124.721 7.0578C125.091 7.0578 125.355 7.1106 125.513 7.2162C125.685 7.3218 125.79 7.467 125.83 7.6518C125.883 7.8366 125.909 8.0412 125.909 8.2656L125.909 19.6902C125.909 19.9014 125.883 20.0994 125.83 20.2842C125.79 20.469 125.685 20.6142 125.513 20.7198C125.341 20.8254 125.071 20.8782 124.701 20.8782ZM116.029 20.8782C115.659 20.8782 115.389 20.8254 115.217 20.7198C115.059 20.6142 114.953 20.469 114.9 20.2842C114.861 20.0862 114.841 19.8816 114.841 19.6704L114.841 8.2458C114.841 8.0346 114.861 7.8366 114.9 7.6518C114.953 7.467 115.065 7.3218 115.237 7.2162C115.408 7.1106 115.679 7.0578 116.049 7.0578C116.431 7.0578 116.702 7.1106 116.86 7.2162C117.032 7.3218 117.138 7.467 117.177 7.6518C117.217 7.8366 117.237 8.0412 117.237 8.2656L117.237 19.6902C117.237 19.9014 117.21 20.0994 117.157 20.2842C117.118 20.469 117.012 20.6142 116.841 20.7198C116.682 20.8254 116.412 20.8782 116.029 20.8782ZM116.603 14.9184L116.603 12.78L123.83 12.78L123.81 14.9184L116.603 14.9184Z" fill="#55AB7B"/>
<path d="M103.305 21.0168C102.671 21.0168 102.051 20.898 101.443 20.6604C100.849 20.4096 100.308 20.0598 99.8197 19.611C99.3445 19.1622 98.9617 18.6342 98.6713 18.027C98.3941 17.4198 98.2555 16.7532 98.2555 16.0272C98.2555 15.3276 98.3875 14.6742 98.6515 14.067C98.9155 13.4598 99.2785 12.9252 99.7405 12.4632C100.203 12.0012 100.73 11.6448 101.324 11.394C101.932 11.13 102.579 10.998 103.265 10.998C104.189 10.998 105.027 11.2224 105.78 11.6712C106.532 12.1068 107.132 12.7008 107.581 13.4532C108.03 14.2056 108.255 15.057 108.255 16.0074C108.255 16.7598 108.116 17.4462 107.839 18.0666C107.562 18.6738 107.185 19.2018 106.71 19.6506C106.235 20.0862 105.7 20.4228 105.106 20.6604C104.526 20.898 103.925 21.0168 103.305 21.0168ZM103.265 18.6804C103.701 18.6804 104.116 18.5748 104.512 18.3636C104.921 18.1392 105.252 17.8224 105.502 17.4132C105.766 17.004 105.898 16.5222 105.898 15.9678C105.898 15.453 105.78 14.9976 105.542 14.6016C105.318 14.2056 105.007 13.8954 104.611 13.671C104.215 13.4466 103.76 13.3344 103.245 13.3344C102.757 13.3344 102.315 13.4532 101.919 13.6908C101.523 13.9152 101.206 14.232 100.968 14.6412C100.744 15.0372 100.632 15.486 100.632 15.9876C100.632 16.542 100.757 17.0238 101.008 17.433C101.258 17.829 101.582 18.1392 101.978 18.3636C102.387 18.5748 102.816 18.6804 103.265 18.6804Z" fill="#55AB7B"/>
<path d="M95.7696 20.8983C95.1228 20.8983 94.5684 20.8323 94.1064 20.7003C93.6444 20.5683 93.2682 20.3637 92.9778 20.0865C92.6874 19.8093 92.4696 19.4529 92.3244 19.0173C92.1924 18.5685 92.1264 18.0405 92.1264 17.4333L92.1264 9.0381C92.1264 8.8005 92.1462 8.5959 92.1858 8.4243C92.2386 8.2527 92.3442 8.1207 92.5026 8.0283C92.6742 7.9227 92.9382 7.8699 93.2946 7.8699C93.6642 7.8699 93.9282 7.9227 94.0866 8.0283C94.2582 8.1339 94.3638 8.2791 94.4034 8.4639C94.4562 8.6355 94.4826 8.8269 94.4826 9.0381L94.4826 17.3541C94.4826 17.6313 94.5024 17.8557 94.542 18.0273C94.5948 18.1989 94.6674 18.3309 94.7598 18.4233C94.8654 18.5025 94.9974 18.5619 95.1558 18.6015C95.3274 18.6279 95.532 18.6411 95.7696 18.6411C96.0204 18.6411 96.2316 18.6609 96.4032 18.7005C96.588 18.7401 96.7266 18.8391 96.819 18.9975C96.9114 19.1427 96.9576 19.3869 96.9576 19.7301C96.9576 20.0997 96.8982 20.3703 96.7794 20.5419C96.6738 20.7003 96.5286 20.7993 96.3438 20.8389C96.1722 20.8785 95.9808 20.8983 95.7696 20.8983ZM91.3146 11.3349L93.354 11.3547L96.0864 11.2755C96.3108 11.2755 96.5088 11.3019 96.6804 11.3547C96.8652 11.3943 97.0104 11.4999 97.116 11.6715C97.2216 11.8299 97.2744 12.0939 97.2744 12.4635C97.2744 12.8067 97.2216 13.0641 97.116 13.2357C97.0104 13.4073 96.8718 13.5195 96.7002 13.5723C96.5286 13.6119 96.3306 13.6317 96.1062 13.6317L93.453 13.5921L91.2552 13.6119C90.9252 13.5987 90.6942 13.5063 90.5622 13.3347C90.4434 13.1499 90.384 12.8529 90.384 12.4437C90.384 12.0609 90.4566 11.7837 90.6018 11.6121C90.7602 11.4273 90.9978 11.3349 91.3146 11.3349Z" fill="#55AB7B"/>
<path d="M80.337 21.0171C79.479 21.0171 78.7266 20.8785 78.0798 20.6013C77.4462 20.3241 76.9116 19.9479 76.476 19.4727C76.0536 18.9843 75.7302 18.4431 75.5058 17.8491C75.2946 17.2419 75.189 16.6149 75.189 15.9681C75.189 15.0177 75.4068 14.1729 75.8424 13.4337C76.278 12.6945 76.8786 12.1137 77.6442 11.6913C78.423 11.2689 79.314 11.0577 80.3172 11.0577C81.03 11.0577 81.657 11.1699 82.1982 11.3943C82.7394 11.6187 83.1882 11.9157 83.5446 12.2853C83.9142 12.6417 84.1914 13.0377 84.3762 13.4733C84.5742 13.9089 84.6732 14.3313 84.6732 14.7405C84.6732 15.4401 84.5016 15.9483 84.1584 16.2651C83.8284 16.5819 83.4126 16.7403 82.911 16.7403L77.6838 16.7403C77.697 17.1891 77.8356 17.5785 78.0996 17.9085C78.3768 18.2385 78.72 18.4959 79.1292 18.6807C79.5516 18.8523 79.9806 18.9381 80.4162 18.9381C80.7462 18.9381 81.0366 18.9183 81.2874 18.8787C81.5514 18.8391 81.7758 18.7929 81.9606 18.7401C82.1454 18.6741 82.3038 18.6081 82.4358 18.5421C82.581 18.4761 82.713 18.4167 82.8318 18.3639C82.9506 18.3111 83.0628 18.2781 83.1684 18.2649C83.3136 18.2517 83.4588 18.2847 83.604 18.3639C83.7492 18.4431 83.868 18.5817 83.9604 18.7797C84.0396 18.9117 84.0924 19.0371 84.1188 19.1559C84.1584 19.2615 84.1782 19.3671 84.1782 19.4727C84.1782 19.7367 84.0198 19.9875 83.703 20.2251C83.3862 20.4495 82.9374 20.6343 82.3566 20.7795C81.789 20.9379 81.1158 21.0171 80.337 21.0171ZM77.6838 15.3345L81.7428 15.3345C81.9672 15.3345 82.1388 15.3015 82.2576 15.2355C82.3764 15.1563 82.4358 14.9979 82.4358 14.7603C82.4358 14.4567 82.3434 14.1861 82.1586 13.9485C81.9738 13.6977 81.723 13.5063 81.4062 13.3743C81.0894 13.2291 80.7198 13.1565 80.2974 13.1565C79.809 13.1565 79.3668 13.2555 78.9708 13.4535C78.5748 13.6383 78.258 13.8957 78.0204 14.2257C77.796 14.5557 77.6838 14.9253 77.6838 15.3345Z" fill="#55AB7B"/>
<path d="M65.7134 20.878C65.357 20.878 65.093 20.8186 64.9214 20.6998C64.763 20.5942 64.664 20.4556 64.6244 20.284C64.5848 20.0992 64.565 19.8946 64.565 19.6702L64.565 12.265C64.565 12.0538 64.5848 11.8624 64.6244 11.6908C64.664 11.5192 64.7696 11.3872 64.9412 11.2948C65.1128 11.1892 65.3768 11.1364 65.7332 11.1364C66.05 11.1364 66.2876 11.176 66.446 11.2552C66.6044 11.3344 66.71 11.4334 66.7628 11.5522C66.8156 11.671 66.842 11.7898 66.842 11.9086C66.8552 12.0274 66.8684 12.1198 66.8816 12.1858L66.8024 12.8194C66.8816 12.6082 67.0136 12.4036 67.1984 12.2056C67.3832 12.0076 67.6076 11.8294 67.8716 11.671C68.1356 11.4994 68.4194 11.3674 68.723 11.275C69.0398 11.1694 69.3632 11.1166 69.6932 11.1166C70.3136 11.1166 70.868 11.2288 71.3564 11.4532C71.8448 11.6776 72.2606 11.9944 72.6038 12.4036C72.9602 12.8128 73.2308 13.3012 73.4156 13.8688C73.6004 14.4232 73.6928 15.0502 73.6928 15.7498L73.6928 19.69C73.6928 19.9144 73.6664 20.119 73.6136 20.3038C73.574 20.4754 73.475 20.614 73.3166 20.7196C73.1582 20.8252 72.8876 20.878 72.5048 20.878C72.1352 20.878 71.8646 20.8186 71.693 20.6998C71.5214 20.5942 71.4158 20.4556 71.3762 20.284C71.3366 20.0992 71.3168 19.8946 71.3168 19.6702L71.3168 15.73C71.3168 15.2548 71.231 14.8456 71.0594 14.5024C70.901 14.1592 70.6634 13.8952 70.3466 13.7104C70.043 13.5256 69.6536 13.4332 69.1784 13.4332C68.7164 13.4332 68.3138 13.5322 67.9706 13.7302C67.6274 13.915 67.3634 14.179 67.1786 14.5222C66.9938 14.8654 66.9014 15.268 66.9014 15.73L66.9014 19.69C66.9014 19.9144 66.8816 20.119 66.842 20.3038C66.8024 20.4754 66.6968 20.614 66.5252 20.7196C66.3668 20.8252 66.0962 20.878 65.7134 20.878Z" fill="#55AB7B"/>
<path d="M61.1911 20.898C60.8347 20.898 60.5707 20.8386 60.3991 20.7198C60.2275 20.6142 60.1219 20.4756 60.0823 20.304C60.0427 20.1192 60.0229 19.9146 60.0229 19.6902L60.0229 12.3246C60.0229 12.1134 60.0427 11.922 60.0823 11.7504C60.1351 11.5656 60.2407 11.4204 60.3991 11.3148C60.5707 11.2092 60.8413 11.1564 61.2109 11.1564C61.5805 11.1564 61.8445 11.2092 62.0029 11.3148C62.1745 11.4204 62.2801 11.5656 62.3197 11.7504C62.3593 11.9352 62.3791 12.1398 62.3791 12.3642L62.3791 19.71C62.3791 19.9344 62.3593 20.139 62.3197 20.3238C62.2801 20.4954 62.1745 20.634 62.0029 20.7396C61.8445 20.8452 61.5739 20.898 61.1911 20.898ZM61.1911 9.23581C60.8083 9.23581 60.5245 9.18301 60.3397 9.07741C60.1681 8.95861 60.0559 8.80021 60.0031 8.60221C59.9635 8.40421 59.9437 8.18641 59.9437 7.94881C59.9437 7.69801 59.9635 7.48021 60.0031 7.29541C60.0559 7.11061 60.1747 6.96541 60.3595 6.85981C60.5443 6.74101 60.8281 6.68161 61.2109 6.68161C61.6069 6.68161 61.8907 6.74101 62.0623 6.85981C62.2339 6.97861 62.3461 7.13701 62.3989 7.33501C62.4517 7.51981 62.4781 7.73761 62.4781 7.98841C62.4781 8.21281 62.4517 8.42401 62.3989 8.62201C62.3461 8.82001 62.2339 8.97181 62.0623 9.07741C61.8907 9.18301 61.6003 9.23581 61.1911 9.23581Z" fill="#55AB7B"/>
<path d="M56.943 20.8983C56.2962 20.8983 55.7418 20.8323 55.2798 20.7003C54.8178 20.5683 54.4416 20.3637 54.1512 20.0865C53.8608 19.8093 53.643 19.4529 53.4978 19.0173C53.3658 18.5685 53.2998 18.0405 53.2998 17.4333L53.2998 9.0381C53.2998 8.8005 53.3196 8.5959 53.3592 8.4243C53.412 8.2527 53.5176 8.1207 53.676 8.0283C53.8476 7.9227 54.1116 7.8699 54.468 7.8699C54.8376 7.8699 55.1016 7.9227 55.26 8.0283C55.4316 8.1339 55.5372 8.2791 55.5768 8.4639C55.6296 8.6355 55.656 8.8269 55.656 9.0381L55.656 17.3541C55.656 17.6313 55.6758 17.8557 55.7154 18.0273C55.7682 18.1989 55.8408 18.3309 55.9332 18.4233C56.0388 18.5025 56.1708 18.5619 56.3292 18.6015C56.5008 18.6279 56.7054 18.6411 56.943 18.6411C57.1938 18.6411 57.405 18.6609 57.5766 18.7005C57.7614 18.7401 57.9 18.8391 57.9924 18.9975C58.0848 19.1427 58.131 19.3869 58.131 19.7301C58.131 20.0997 58.0716 20.3703 57.9528 20.5419C57.8472 20.7003 57.702 20.7993 57.5172 20.8389C57.3456 20.8785 57.1542 20.8983 56.943 20.8983ZM52.488 11.3349L54.5274 11.3547L57.2598 11.2755C57.4842 11.2755 57.6822 11.3019 57.8538 11.3547C58.0386 11.3943 58.1838 11.4999 58.2894 11.6715C58.395 11.8299 58.4478 12.0939 58.4478 12.4635C58.4478 12.8067 58.395 13.0641 58.2894 13.2357C58.1838 13.4073 58.0452 13.5195 57.8736 13.5723C57.702 13.6119 57.504 13.6317 57.2796 13.6317L54.6264 13.5921L52.4286 13.6119C52.0986 13.5987 51.8676 13.5063 51.7356 13.3347C51.6168 13.1499 51.5574 12.8529 51.5574 12.4437C51.5574 12.0609 51.63 11.7837 51.7752 11.6121C51.9336 11.4273 52.1712 11.3349 52.488 11.3349Z" fill="#55AB7B"/>
<path d="M45.2653 20.8782C44.6581 20.8782 44.0971 20.7726 43.5823 20.5614C43.0807 20.337 42.6385 20.0202 42.2557 19.611C41.8729 19.2018 41.5759 18.7134 41.3647 18.1458C41.1535 17.5782 41.0479 16.9512 41.0479 16.2648L41.0479 12.3246C41.0479 12.1002 41.0677 11.9022 41.1073 11.7306C41.1469 11.5458 41.2525 11.4006 41.4241 11.295C41.5957 11.1894 41.8597 11.1366 42.2161 11.1366C42.5989 11.1366 42.8695 11.1894 43.0279 11.295C43.1995 11.4006 43.3051 11.5458 43.3447 11.7306C43.3843 11.9154 43.4041 12.12 43.4041 12.3444L43.4041 16.2648C43.4041 16.74 43.4833 17.1492 43.6417 17.4924C43.8133 17.8356 44.0575 18.1062 44.3743 18.3042C44.6911 18.489 45.0805 18.5814 45.5425 18.5814C46.0177 18.5814 46.4203 18.489 46.7503 18.3042C47.0935 18.1062 47.3575 17.8356 47.5423 17.4924C47.7271 17.136 47.8195 16.7268 47.8195 16.2648L47.8195 12.3048C47.8195 12.0804 47.8393 11.8824 47.8789 11.7108C47.9185 11.526 48.0241 11.3874 48.1957 11.295C48.3673 11.1894 48.6379 11.1366 49.0075 11.1366C49.3771 11.1366 49.6411 11.1894 49.7995 11.295C49.9579 11.4006 50.0569 11.5458 50.0965 11.7306C50.1493 11.9154 50.1757 12.1134 50.1757 12.3246L50.1757 19.7496C50.1757 19.9476 50.1493 20.1324 50.0965 20.304C50.0569 20.4756 49.9513 20.6142 49.7797 20.7198C49.6213 20.8254 49.3573 20.8782 48.9877 20.8782C48.7237 20.8782 48.5125 20.8452 48.3541 20.7792C48.2089 20.7264 48.0967 20.6538 48.0175 20.5614C47.9515 20.4558 47.9053 20.3502 47.8789 20.2446C47.8657 20.139 47.8591 20.0334 47.8591 19.9278L48.0175 19.3932C47.9383 19.512 47.8195 19.6572 47.6611 19.8288C47.5027 19.9872 47.3047 20.1522 47.0671 20.3238C46.8427 20.4822 46.5787 20.6142 46.2751 20.7198C45.9715 20.8254 45.6349 20.8782 45.2653 20.8782Z" fill="#55AB7B"/>
<path d="M34.7199 21.0168C34.0863 21.0168 33.4659 20.898 32.8587 20.6604C32.2647 20.4096 31.7235 20.0598 31.2351 19.611C30.7599 19.1622 30.3771 18.6342 30.0867 18.027C29.8095 17.4198 29.6709 16.7532 29.6709 16.0272C29.6709 15.3276 29.8029 14.6742 30.0669 14.067C30.3309 13.4598 30.6939 12.9252 31.1559 12.4632C31.6179 12.0012 32.1459 11.6448 32.7399 11.394C33.3471 11.13 33.9939 10.998 34.6803 10.998C35.6043 10.998 36.4425 11.2224 37.1949 11.6712C37.9473 12.1068 38.5479 12.7008 38.9967 13.4532C39.4455 14.2056 39.6699 15.057 39.6699 16.0074C39.6699 16.7598 39.5313 17.4462 39.2541 18.0666C38.9769 18.6738 38.6007 19.2018 38.1255 19.6506C37.6503 20.0862 37.1157 20.4228 36.5217 20.6604C35.9409 20.898 35.3403 21.0168 34.7199 21.0168ZM34.6803 18.6804C35.1159 18.6804 35.5317 18.5748 35.9277 18.3636C36.3369 18.1392 36.6669 17.8224 36.9177 17.4132C37.1817 17.004 37.3137 16.5222 37.3137 15.9678C37.3137 15.453 37.1949 14.9976 36.9573 14.6016C36.7329 14.2056 36.4227 13.8954 36.0267 13.671C35.6307 13.4466 35.1753 13.3344 34.6605 13.3344C34.1721 13.3344 33.7299 13.4532 33.3339 13.6908C32.9379 13.9152 32.6211 14.232 32.3835 14.6412C32.1591 15.0372 32.0469 15.486 32.0469 15.9876C32.0469 16.542 32.1723 17.0238 32.4231 17.433C32.6739 17.829 32.9973 18.1392 33.3933 18.3636C33.8025 18.5748 34.2315 18.6804 34.6803 18.6804Z" fill="#55AB7B"/>
<path d="M19.7957 20.8782C19.4261 20.8782 19.1555 20.8254 18.9839 20.7198C18.8255 20.6142 18.7199 20.469 18.6671 20.2842C18.6275 20.0862 18.6077 19.8816 18.6077 19.6704L18.6077 8.2458C18.6077 8.0346 18.6341 7.8432 18.6869 7.6716C18.7397 7.4868 18.8453 7.3416 19.0037 7.236C19.1753 7.1172 19.4459 7.0578 19.8155 7.0578L24.0527 7.0578C24.6599 7.0578 25.2341 7.1568 25.7753 7.3548C26.3297 7.5396 26.8247 7.83 27.2603 8.226C27.6959 8.6088 28.0391 9.0972 28.2899 9.6912C28.5539 10.272 28.6859 10.9518 28.6859 11.7306C28.6859 12.2454 28.6067 12.7602 28.4483 13.275C28.2899 13.7766 28.0523 14.2452 27.7355 14.6808C27.4319 15.1032 27.0425 15.4662 26.5673 15.7698C26.0921 16.0734 25.5311 16.2714 24.8843 16.3638L21.0035 16.3638L21.0035 19.6902C21.0035 19.9014 20.9771 20.0994 20.9243 20.2842C20.8847 20.469 20.7791 20.6142 20.6075 20.7198C20.4491 20.8254 20.1785 20.8782 19.7957 20.8782ZM28.2305 20.5812C27.8477 20.8452 27.5309 20.9442 27.2801 20.8782C27.0425 20.8122 26.8049 20.601 26.5673 20.2446L23.2409 15.2154L25.9139 14.859L28.5473 18.8586C28.7321 19.1226 28.8443 19.347 28.8839 19.5318C28.9235 19.7166 28.8905 19.8882 28.7849 20.0466C28.6793 20.205 28.4945 20.3832 28.2305 20.5812ZM21.0035 13.9878L24.3497 13.9878C24.5873 13.9878 24.8183 13.9482 25.0427 13.869C25.2803 13.7766 25.4915 13.638 25.6763 13.4532C25.8611 13.2552 26.0063 13.0176 26.1119 12.7404C26.2307 12.45 26.2901 12.1068 26.2901 11.7108C26.2901 11.2356 26.1977 10.833 26.0129 10.503C25.8281 10.1598 25.5641 9.9024 25.2209 9.7308C24.8909 9.546 24.4883 9.4536 24.0131 9.4536L21.0035 9.4536L21.0035 13.9878Z" fill="#55AB7B"/>
</svg>
